<svg version="1.1" id="Layer_1" xmlns="http://www.w3.org/2000/svg" xmlns:xlink="http://www.w3.org/1999/xlink" x="0px" y="0px"
	 width="100%" viewBox="0 0 320 272" enable-background="new 0 0 320 272" xml:space="preserve">
<path fill="#000000" opacity="1.000000" stroke="none" 
	d="
M143.468658,273.000000 
	C140.037109,271.236145 136.587997,271.306213 133.372726,270.559601 
	C80.005287,258.167664 41.396542,217.556671 32.070965,163.736069 
	C30.876276,156.841187 30.727661,149.843735 30.577442,142.836563 
	C30.471237,137.882568 32.473152,135.826477 37.145397,135.684525 
	C40.450668,208.425217 76.406487,252.856384 149.127075,265.559967 
	C210.299789,269.533752 253.331711,242.739471 280.090271,188.344421 
	C285.808289,190.431625 286.577515,191.729523 284.019043,196.956345 
	C264.454529,236.925797 232.914551,261.741974 189.454559,271.386169 
	C187.833420,271.745911 186.230392,272.187256 184.309464,272.795288 
	C170.645767,273.000000 157.291550,273.000000 143.468658,273.000000 
z"/>
<path fill="#000000" opacity="1.000000" stroke="none" 
	d="
M254.565689,182.757019 
	C248.855637,183.592041 243.584412,184.334473 238.309677,185.050995 
	C237.487305,185.162704 236.545425,185.431320 235.833359,185.163422 
	C224.822968,181.020950 214.558105,186.001373 204.222443,188.105591 
	C176.186005,193.813522 148.555359,201.407867 120.414139,206.665115 
	C113.887230,207.884445 107.186028,208.170853 100.659149,209.390320 
	C93.344299,210.756989 88.804268,207.309082 86.987083,201.023941 
	C85.191826,194.814636 81.905525,192.507614 75.708755,192.850769 
	C73.150673,192.992447 70.523064,191.916733 67.326363,192.248749 
	C69.327072,197.282501 72.239052,201.496979 75.354301,205.471878 
	C96.212830,232.086212 123.201431,247.540634 157.312683,248.950165 
	C200.938751,250.752853 233.623428,231.929199 256.256012,195.003952 
	C259.611511,189.529419 261.667450,188.496765 268.976166,189.649033 
	C270.037659,191.438538 268.830627,192.848572 268.077789,194.252518 
	C248.178635,231.362152 217.739334,253.609558 175.617142,258.330109 
	C116.662537,264.937012 63.200462,227.609024 48.479008,170.283051 
	C45.330799,158.023788 45.187401,145.589203 45.760265,133.078171 
	C45.988274,128.098679 48.039394,125.190979 53.473213,124.664642 
	C59.754112,124.056259 65.953499,122.647758 72.214813,121.777596 
	C75.180962,121.365387 76.251266,119.836151 75.964897,117.036812 
	C75.625740,113.721397 73.193336,114.226074 71.077454,114.485008 
	C63.483898,115.414322 55.910294,116.509277 48.312748,117.402092 
	C45.037426,117.786987 43.085907,119.354843 41.443600,122.281754 
	C38.369766,127.759911 31.318790,130.832489 25.728291,129.768784 
	C19.325134,128.550476 13.959334,123.642288 12.819874,117.961235 
	C11.433753,111.050415 13.958528,104.633163 19.542318,100.874680 
	C25.558899,96.824883 33.886280,97.624985 39.157425,103.202309 
	C41.256611,105.423409 43.353252,106.176071 46.201645,105.780083 
	C57.735481,104.176643 69.258270,102.465614 80.825394,101.147652 
	C84.097954,100.774765 88.323326,98.256493 90.358345,103.942673 
	C90.921379,105.515900 93.705704,104.520538 95.487984,104.258919 
	C126.658524,99.683449 157.049911,91.530220 187.629547,84.232231 
	C200.583191,81.140785 213.639465,78.581482 226.906708,77.156662 
	C229.891159,76.836151 231.734344,77.709251 232.798874,80.433533 
	C233.403961,81.981995 234.156006,83.484138 234.631699,85.070183 
	C237.034027,93.080101 237.011475,93.063026 245.508972,93.644539 
	C248.160873,93.826004 250.801300,94.175735 253.446594,94.452293 
	C255.902664,94.709061 258.358215,94.970963 260.855042,95.234947 
	C261.600769,93.005249 260.212067,91.527817 259.390472,90.047958 
	C240.920059,56.779026 213.117188,36.760147 175.122986,32.245457 
	C129.598206,26.835934 86.623466,50.486732 66.477425,91.268578 
	C63.876789,96.533073 60.732765,97.737389 53.664158,95.751564 
	C56.012043,88.774185 59.397308,82.338646 63.470966,76.350113 
	C89.114632,38.652401 124.587624,19.932487 170.384842,21.817398 
	C224.197678,24.032213 271.867554,67.638626 279.445801,121.057602 
	C281.073364,132.530212 281.330170,143.879105 279.472046,155.324570 
	C278.920685,158.720886 277.282623,160.243759 274.028656,160.675461 
	C265.457428,161.812607 256.899414,163.050888 248.339935,164.275269 
	C243.013229,165.037186 242.489975,165.910217 243.969894,172.142075 
	C253.588898,170.915131 263.264252,169.538132 272.975677,168.497314 
	C278.550842,167.899796 283.007263,166.539001 286.915924,161.638092 
	C292.237305,154.965820 302.042297,155.477051 308.289093,161.485428 
	C314.673187,167.625854 314.929749,177.084457 308.884613,183.438766 
	C302.967194,189.658875 293.446167,190.359085 287.469299,184.140213 
	C283.945038,180.473221 280.818512,179.133347 275.790375,180.124130 
	C268.960266,181.469971 261.941315,181.857437 254.565689,182.757019 
M155.149017,173.554749 
	C169.393967,170.264557 183.601120,166.794769 197.905319,163.786301 
	C202.606567,162.797546 204.161880,160.658234 204.065308,155.990204 
	C203.772720,141.848465 203.862411,127.699059 203.763443,113.552910 
	C203.722565,107.712067 202.477493,106.620140 196.894623,107.924324 
	C173.755173,113.329773 150.650894,118.886681 127.496468,124.226501 
	C123.183945,125.221039 122.024071,127.676537 122.070793,131.730774 
	C122.229980,145.542648 122.172867,159.356964 122.209549,173.170334 
	C122.226768,179.653641 123.548203,180.734085 130.038162,179.294388 
	C138.150055,177.494904 146.235123,175.574509 155.149017,173.554749 
M112.635490,146.502594 
	C112.640388,141.840942 112.595726,137.178513 112.667229,132.517883 
	C112.716675,129.294540 111.191521,127.926872 108.050919,128.231201 
	C104.247971,128.599716 100.453804,129.107681 96.642700,129.334183 
	C84.411720,130.060989 72.076660,129.252411 59.997505,132.225159 
	C57.186474,132.916946 55.483841,133.835953 55.349445,136.963470 
	C54.751507,150.877991 56.008194,164.537247 60.535946,177.799622 
	C61.349194,180.181732 62.637619,181.952026 65.233299,182.414444 
	C79.253532,184.912201 93.319534,185.321198 107.440575,183.330597 
	C111.168602,182.805054 112.834991,180.961411 112.742218,176.969452 
	C112.514023,167.151352 112.646210,157.324860 112.635490,146.502594 
M233.787231,157.003601 
	C244.127930,156.807678 254.160767,154.047653 264.428131,153.314026 
	C268.498169,153.023209 270.342499,151.053818 270.568054,147.150146 
	C271.311401,134.286362 270.463776,121.582779 266.960022,109.117790 
	C266.382446,107.062981 265.578827,105.403320 263.296753,104.881180 
	C248.191757,101.425117 233.022354,101.111343 217.806641,104.025620 
	C215.079086,104.548042 213.364639,106.232101 213.366821,109.215500 
	C213.377853,124.341644 213.341202,139.468216 213.456741,154.593613 
	C213.483322,158.075211 215.387451,159.614899 219.061050,158.989807 
	C223.641525,158.210358 228.272797,157.729584 233.787231,157.003601 
M295.981873,165.409897 
	C291.740753,166.672119 289.690735,169.438828 290.219788,173.913315 
	C290.596069,177.095673 292.469727,178.964111 295.555176,179.594406 
	C300.003540,180.503113 303.960632,178.127991 304.681915,174.183044 
	C305.597626,169.174347 302.761414,166.016266 295.981873,165.409897 
M24.876978,120.683983 
	C28.836893,122.536484 32.041546,121.283417 34.373886,117.951225 
	C36.229591,115.299995 36.361473,112.289940 34.204479,109.663445 
	C31.953934,106.923019 28.915712,106.542725 25.633156,107.443390 
	C21.110394,108.684319 17.835102,116.285622 24.876978,120.683983 
M91.303009,121.676659 
	C95.968597,121.974411 95.671219,118.756065 95.628738,115.645691 
	C95.596909,113.314133 94.539146,112.065399 92.221489,112.674706 
	C89.375290,113.422958 85.126465,112.036964 85.278816,117.581665 
	C85.387428,121.534142 87.530861,121.866539 91.303009,121.676659 
M133.598022,109.652657 
	C133.363892,104.465767 130.096481,106.814064 127.544640,107.162895 
	C121.318947,108.013931 123.673859,112.317909 123.685577,116.732918 
	C127.416649,114.416351 133.325043,117.451370 133.598022,109.652657 
M104.589821,113.187309 
	C104.207367,119.640625 106.459518,121.174149 112.336647,118.765762 
	C115.650421,117.407814 114.730705,114.769310 114.547234,112.470840 
	C114.332634,109.782257 112.045998,110.241356 110.328079,110.463303 
	C108.409126,110.711235 106.354652,110.859482 104.589821,113.187309 
M170.592361,101.242462 
	C170.328644,99.885590 171.063187,97.666702 169.053970,97.586739 
	C166.294708,97.476936 163.030701,97.757927 161.245270,99.911118 
	C159.587067,101.910881 159.874268,104.806198 161.631256,107.508827 
	C164.959946,105.920662 170.230896,108.146797 170.592361,101.242462 
M231.360733,165.519180 
	C223.166992,167.104080 222.770416,167.665070 225.004852,175.439743 
	C227.679642,174.105972 231.568802,176.207138 233.255569,172.738861 
	C234.254501,170.684830 234.943298,167.579758 231.360733,165.519180 
M119.783005,189.655151 
	C117.671425,190.633575 114.493134,189.551132 113.493538,192.584869 
	C112.939110,194.267532 112.573669,196.483719 113.900818,197.764282 
	C115.961029,199.752167 118.505600,198.349792 120.869980,197.856552 
	C123.104729,197.390366 123.731705,195.950256 123.625214,193.901978 
	C123.514961,191.781357 123.894646,189.346283 119.783005,189.655151 
M211.840546,168.708435 
	C210.409927,169.071213 208.966339,169.389969 207.551849,169.807404 
	C205.601425,170.383026 205.190140,171.936218 205.327896,173.699402 
	C205.450287,175.265930 204.622665,177.541107 206.439011,178.146439 
	C209.136307,179.045319 212.668686,178.601151 214.025513,176.366180 
	C215.349747,174.184906 216.810974,170.441177 211.840546,168.708435 
M201.935501,89.625862 
	C197.463257,90.336868 197.371292,93.604370 198.326096,96.756134 
	C199.336319,100.090775 202.137360,98.389885 204.211517,97.937569 
	C209.935928,96.689262 207.227646,92.538826 207.393631,89.396591 
	C205.567963,88.592247 204.146576,89.433571 201.935501,89.625862 
M221.516510,86.244781 
	C218.188461,86.055206 215.956039,87.038857 216.420746,90.960014 
	C216.649521,92.890388 216.380829,95.455826 219.432251,94.855774 
	C221.878479,94.374733 225.801086,96.266708 226.314804,92.092743 
	C226.616852,89.638496 226.778015,86.030556 221.516510,86.244781 
M150.729111,110.071281 
	C152.751511,107.518646 151.996155,104.916512 151.176544,102.288284 
	C142.184006,102.854050 141.218750,103.962082 142.840820,111.615593 
	C145.400940,112.287361 147.661850,110.924072 150.729111,110.071281 
M132.076187,193.027634 
	C133.736115,198.089417 137.402344,194.863617 139.408920,194.113312 
	C143.444641,192.604233 141.484711,189.007584 141.094254,186.076172 
	C133.407318,186.206924 132.319321,186.969772 132.076187,193.027634 
M173.969955,177.701431 
	C173.326935,177.875031 172.693634,178.131912 172.039276,178.208237 
	C168.700424,178.597687 168.198425,180.803940 168.400757,183.608521 
	C168.567886,185.924789 169.776535,187.220978 171.952240,186.525421 
	C174.248489,185.791306 178.068024,186.852997 178.255585,183.126907 
	C178.361755,181.017944 179.253586,177.199112 173.969955,177.701431 
M159.859421,187.133224 
	C159.762314,185.358704 160.230850,183.483337 158.980392,181.922592 
	C150.537567,182.044601 149.238373,183.524353 151.203918,191.458984 
	C154.086563,190.270126 157.786911,191.633041 159.859421,187.133224 
M188.720596,174.351578 
	C186.273392,176.668457 186.268463,179.846390 188.120407,181.805923 
	C189.846436,183.632233 193.097733,182.194244 194.961273,180.990768 
	C197.941162,179.066360 196.783524,175.948593 195.990341,173.142349 
	C193.542191,172.959641 191.475372,173.407562 188.720596,174.351578 
M186.422806,93.394142 
	C184.799835,93.747978 183.168625,94.068138 181.555832,94.463531 
	C179.123413,95.059875 179.320236,97.032074 179.353378,98.870132 
	C179.380402,100.369949 179.284195,102.218491 181.215881,102.458290 
	C183.887543,102.789955 187.044022,102.556763 188.517090,100.342026 
	C189.888672,98.279915 190.132141,95.245720 186.422806,93.394142 
M94.604805,194.265198 
	C93.796844,196.520584 93.765442,198.727310 94.859550,200.789566 
	C96.469002,201.570389 97.936089,200.806534 99.387878,200.901016 
	C103.800903,201.188263 104.136223,198.448456 103.763138,195.128738 
	C103.326286,191.241623 100.692451,192.650726 98.544846,192.979507 
	C97.411697,193.152969 96.300240,193.468018 94.604805,194.265198 
z"/>
<path fill="#000000" opacity="1.000000" stroke="none" 
	d="
M260.723663,49.299454 
	C277.739685,68.571854 289.093445,90.296021 293.750641,115.337440 
	C295.675201,125.685654 296.040985,136.121948 295.348846,146.625565 
	C295.035919,151.374161 291.899689,151.539185 288.352661,151.696579 
	C289.061646,82.380234 257.815613,36.599865 190.319824,17.327633 
	C120.907501,5.714699 73.648270,34.781898 44.086803,96.729111 
	C38.519428,94.742226 37.809021,93.570892 39.947636,88.762619 
	C60.036114,43.597347 94.482559,15.834010 143.124115,8.195067 
	C188.831696,1.016891 228.151428,15.911845 260.723663,49.299454 
z"/>
<path fill="#000000" opacity="1.000000" stroke="none" 
	d="
M162.336243,158.335022 
	C155.876572,157.203201 151.674805,153.840622 149.472809,148.111710 
	C148.770401,146.284332 147.745255,143.960968 150.557968,143.178665 
	C152.770493,142.563293 155.413132,141.649490 157.203201,144.457016 
	C161.722641,151.545319 163.771515,152.367310 171.233521,148.969162 
	C174.464310,147.497849 175.910324,148.907578 177.204300,151.220184 
	C178.706619,153.905228 176.216141,154.663437 174.666977,155.661057 
	C171.053070,157.988342 167.012482,158.673355 162.336243,158.335022 
z"/>
<path fill="#000000" opacity="1.000000" stroke="none" 
	d="
M174.288879,132.332092 
	C173.190536,134.194412 171.762283,134.585251 170.213104,134.193008 
	C164.491928,132.744354 160.059830,134.155319 157.367874,139.704514 
	C156.902176,140.664505 156.093018,141.207886 155.086578,141.479141 
	C153.142532,142.003098 150.962646,142.707870 149.412262,141.123917 
	C147.910446,139.589569 149.056702,137.661804 149.790588,136.014145 
	C153.552017,127.569359 164.214661,123.589523 172.508148,127.400719 
	C174.690414,128.403564 175.820221,129.580841 174.288879,132.332092 
z"/>
<path fill="#000000" opacity="1.000000" stroke="none" 
	d="
M96.889191,170.184784 
	C87.582680,174.542068 77.842934,169.689514 74.863419,162.060547 
	C74.144180,160.218979 72.250305,157.769043 75.292313,156.525879 
	C77.871574,155.471817 80.690437,155.105164 82.588440,158.461731 
	C85.738213,164.032059 88.767380,165.259308 94.388115,163.083923 
	C97.350426,161.937408 99.962013,161.122314 101.459923,164.643936 
	C103.141167,168.596588 99.075851,168.549393 96.889191,170.184784 
z"/>
<path fill="#000000" opacity="1.000000" stroke="none" 
	d="
M75.857513,147.122314 
	C81.108093,140.266235 87.830635,138.592133 95.570702,140.339432 
	C97.683311,140.816376 100.539841,141.176376 99.506241,144.705353 
	C98.665993,147.574158 97.026619,148.609741 93.898087,147.777359 
	C89.792198,146.684921 85.682053,147.127380 83.502563,151.328110 
	C81.585533,155.022995 78.478699,156.352081 75.356201,154.736115 
	C71.718407,152.853485 74.902191,149.908218 75.857513,147.122314 
z"/>
<path fill="#000000" opacity="1.000000" stroke="none" 
	d="
M237.944336,135.500092 
	C241.181351,136.308975 243.975494,136.048050 246.556763,134.666046 
	C249.259003,133.219254 250.918106,134.174667 252.180618,136.651978 
	C253.759338,139.749832 251.165192,140.400314 249.365051,141.326630 
	C239.062225,146.628281 229.395386,143.800720 225.463470,134.440430 
	C224.808456,132.881088 224.334183,131.335403 224.727737,129.379303 
	C228.929535,127.858414 232.649353,127.263634 234.723267,132.699005 
	C235.140762,133.793198 236.594727,134.491882 237.944336,135.500092 
z"/>
<path fill="#000000" opacity="1.000000" stroke="none" 
	d="
M228.186432,127.322868 
	C224.635544,127.472031 224.133743,125.880287 224.938278,123.216942 
	C227.770050,113.842514 239.992767,108.764328 248.587738,113.434250 
	C249.929535,114.163292 251.475510,114.962074 250.667160,116.799591 
	C249.901810,118.539330 249.044235,121.248817 246.679443,120.465340 
	C239.934189,118.230591 235.489883,120.401634 232.333313,126.490059 
	C231.726837,127.659828 229.912964,127.286285 228.186432,127.322868 
z"/>
</svg>